<svg width="100" height="100" viewBox="0 0 100 100" fill="none" xmlns="http://www.w3.org/2000/svg">
<g clip-path="url(#clip0_4775_321)">
<path d="M14.8415 85.7391L14.8415 85.7392L14.8514 85.7448C19.0556 88.1368 23.7216 89.3237 28.8159 89.3237C32.8348 89.3237 36.5946 88.569 40.0773 87.0453L40.0839 87.0424L40.0906 87.0394C43.6377 85.4468 46.6558 83.1946 49.1272 80.287L50.0258 79.2298L49.0515 78.242L41.6755 70.7635L40.5071 69.5788L39.4369 70.8529C38.1567 72.377 36.61 73.5308 34.7814 74.3252C33.0075 75.0573 31.0255 75.4346 28.8159 75.4346C26.2559 75.4346 24.0324 74.8773 22.1049 73.799C20.2294 72.6441 18.7498 71.1054 17.6518 69.1624C16.6234 67.1557 16.0912 64.8458 16.0912 62.1976C16.0912 59.4701 16.6278 57.167 17.6471 55.2411C18.7463 53.2931 20.2259 51.7894 22.0982 50.7022L22.1046 50.6985L22.1109 50.6948C24.039 49.55 26.2595 48.9606 28.8159 48.9606C31.0144 48.9606 32.9859 49.3679 34.7526 50.1599L34.7808 50.1725L34.8096 50.1841C36.6243 50.9099 38.1614 52.0239 39.4369 53.5423L40.5071 54.8164L41.6755 53.6317L49.0515 46.1533L50.0258 45.1654L49.1272 44.1082C46.6552 41.1999 43.6348 38.98 40.0841 37.4552C36.6008 35.8618 32.8382 35.0716 28.8159 35.0716C23.7216 35.0716 19.0556 36.2584 14.8514 38.6504L14.8514 38.6504L14.8415 38.6561C10.7213 41.0415 7.45859 44.3035 5.07245 48.4231C2.67083 52.5007 1.485 57.1059 1.485 62.1976C1.485 67.2275 2.67377 71.829 5.06953 75.9671C7.45592 80.0891 10.7196 83.3527 14.8415 85.7391Z" fill="#2E2A23" stroke="#EBE0D0" stroke-width="3.02999"/>
<path d="M61.5209 86.7843V88.2993H63.0359H74.3048H75.8198V86.7843V49.3705H89.1591H90.6741V47.8555V37.6111V36.0961H89.1591H75.8198V31.0546C75.8198 28.5811 76.4648 26.9394 77.5274 25.8768L76.4561 24.8055L77.5274 25.8768C78.6708 24.7333 80.3575 24.0668 82.8076 24.0668C84.1644 24.0668 85.1399 24.2848 85.8181 24.6239L86.4956 23.2689L85.8181 24.6239C86.6168 25.0233 87.3738 25.5725 88.0879 26.2866L89.1591 27.3578L90.2304 26.2866L97.5039 19.013L98.5559 17.9611L97.5232 16.8902C95.5711 14.8657 93.4482 13.2846 91.1508 12.1729C88.7789 11.0253 85.9798 10.485 82.8076 10.485C78.6965 10.485 74.9919 11.3523 71.7353 13.1287L71.7288 13.1322L71.7224 13.1358C68.5548 14.9038 66.0376 17.3458 64.1928 20.4451L64.1859 20.4566L64.1792 20.4683C62.3922 23.5956 61.5209 27.1739 61.5209 31.1571V36.0961H51.2549H49.7399V37.6111V47.8555V49.3705H51.2549H61.5209V86.7843Z" fill="#2E2A23" stroke="#EBE0D0" stroke-width="3.02999"/>
</g>
<defs>
<clipPath id="clip0_4775_321">
<rect width="100" height="100" fill="white"/>
</clipPath>
</defs>
</svg>
