<svg width="100" height="100" viewBox="0 0 100 100" fill="none" xmlns="http://www.w3.org/2000/svg">
<path d="M42.5372 69.2907C41.2026 69.8354 39.732 70.2551 38.229 70.568C36.7291 70.8501 35.2632 71.0126 33.8516 71.0126C30.8752 71.0126 28.2481 70.4571 26.0792 69.4548C23.8273 68.3673 21.9531 66.915 20.4594 65.1295C18.9401 63.2832 17.763 61.1277 16.9628 58.6442C16.1599 56.1525 15.7621 53.4063 15.7621 50.5099C15.7621 47.533 16.1873 44.7603 17.0189 42.2376L17.022 42.2282L17.025 42.2187C17.8244 39.7105 19.0271 37.535 20.5642 35.7283L20.5698 35.7216L20.5754 35.7149C22.0673 33.9299 23.9719 32.4745 26.2001 31.4141C28.3878 30.387 30.9814 29.8565 33.9722 29.8565C35.3197 29.8565 36.6833 30.0181 38.0672 30.3226L38.0859 30.3267L38.1046 30.3304C39.4765 30.6048 40.8003 31.0177 42.077 31.545L42.0943 31.5522L42.1118 31.559C43.4126 32.068 44.6186 32.6471 45.721 33.3462L45.7359 33.3556L45.7509 33.3648C46.9036 34.0676 48.0016 34.8559 48.955 35.6407C48.9564 35.6419 48.9579 35.6431 48.9594 35.6444L49.4934 36.0894L51.1021 37.43L52.3674 35.7614L55.1124 32.1417L56.2391 30.656L54.8358 29.4281L54.3543 29.0068C51.4779 26.4859 48.1306 24.5263 44.453 23.1503C40.7446 21.7325 36.7028 21 32.4037 21C29.6505 21 26.9452 21.3507 24.3847 22.0608C21.7694 22.7094 19.3118 23.7125 17.0765 25.0078C14.8839 26.2658 12.8226 27.8122 10.9858 29.5845L10.9794 29.5906L10.9731 29.5968C9.16558 31.3721 7.57867 33.3781 6.28011 35.5845C4.98003 37.7633 3.98223 40.1205 3.24687 42.6143L3.24016 42.6371L3.23398 42.66C2.55548 45.1802 2.19995 47.7983 2.19995 50.4798C2.19995 53.1614 2.55553 55.7877 3.27048 58.3225L3.27562 58.3407L3.28112 58.3589C4.0148 60.7832 5.01205 63.1414 6.31699 65.2958C7.61259 67.4648 9.19641 69.4675 11.0033 71.242L11.0161 71.2547L11.0292 71.2671C12.8526 72.9946 14.8734 74.5352 17.0615 75.8224L17.0615 75.8224L17.0725 75.8288C19.3196 77.1314 21.7454 78.0994 24.2773 78.7734C26.8428 79.4866 29.554 79.8389 32.3132 79.8389C36.8315 79.8389 41.1309 79.0432 45.0391 77.4605C48.9097 75.8931 52.379 73.6801 55.3102 70.9111C55.3117 70.9096 55.3132 70.9082 55.3148 70.9068L55.7581 70.493L57.0991 69.2415L55.968 67.7976L53.1325 64.1778L51.6599 62.2979L50.0676 64.0776L49.564 64.6404C48.6558 65.6271 47.6158 66.5063 46.4423 67.2531L46.4198 67.2674L46.3978 67.2822C45.2438 68.0605 43.9255 68.724 42.5372 69.2907Z" fill="#2DF9B0" stroke="black" stroke-width="4"/>
<path d="M61.2 76.7227V78.7227H63.2H72.0984H74.0984V76.7227V49.795H95.144H97.1441V47.795V43.0592V41.0592H95.144H74.0984V30.8518H95.868H97.868V28.8518V24.116V22.116H95.868H63.2H61.2V24.116V76.7227Z" fill="#2DF9B0" stroke="black" stroke-width="4"/>
</svg>
