<svg width="200" height="21" viewBox="0 0 200 21" fill="none" xmlns="http://www.w3.org/2000/svg">
<path d="M160.43 12.2537C160.132 11.8318 159.778 11.4004 159.384 10.9689C159.001 10.5374 158.589 10.106 158.167 9.6649L156.24 7.58426C155.664 6.97062 155.262 6.45286 155.022 6.05974C154.792 5.66663 154.677 5.33104 154.677 5.06257C154.677 4.77493 154.744 4.52563 154.868 4.34346C155.003 4.1421 155.175 3.97911 155.367 3.85446C155.568 3.72981 155.779 3.64352 155.99 3.58599C156.211 3.52846 156.412 3.4997 156.575 3.4997C156.968 3.4997 157.342 3.51887 157.678 3.56681C158.023 3.60517 158.339 3.65311 158.646 3.72022C158.953 3.78734 159.25 3.86405 159.528 3.94075C159.816 4.02705 160.094 4.12293 160.362 4.20922L160.641 4.3051L160.698 2.70388L160.545 2.65594C160.161 2.53129 159.806 2.41623 159.49 2.32035C159.174 2.21488 158.848 2.12859 158.522 2.05188C158.196 1.96559 157.85 1.90806 157.476 1.86012C157.112 1.81218 156.681 1.793 156.192 1.793C155.664 1.793 155.137 1.85053 154.629 1.94641C154.111 2.04229 153.641 2.22447 153.219 2.46417C152.797 2.71347 152.452 3.05864 152.193 3.48052C151.934 3.9024 151.8 4.42975 151.8 5.06257C151.8 5.38857 151.848 5.70498 151.934 6.0118C152.021 6.29945 152.174 6.62545 152.385 6.98021C152.596 7.32538 152.874 7.7185 153.21 8.14997C153.526 8.56226 153.938 9.07043 154.466 9.71284L156.422 11.851C156.709 12.1674 156.997 12.4838 157.265 12.7907C157.534 13.0879 157.764 13.3755 157.946 13.644C158.138 13.9029 158.282 14.1618 158.387 14.4206C158.493 14.6508 158.541 14.8905 158.541 15.111C158.541 15.8876 158.301 16.4629 157.802 16.8752C157.294 17.2779 156.527 17.4889 155.501 17.4889C155.194 17.4889 154.888 17.4601 154.581 17.393C154.274 17.3259 153.958 17.2492 153.66 17.1533C153.363 17.0478 153.056 16.9232 152.769 16.7985L151.628 16.2712L151.436 17.8916L151.56 17.9587C151.915 18.1696 152.28 18.3518 152.644 18.5148C153.008 18.6682 153.401 18.8024 153.785 18.9079C154.188 19.023 154.619 19.0997 155.051 19.1572C155.492 19.2147 155.971 19.2435 156.47 19.2435C157.055 19.2435 157.649 19.1668 158.234 19.0038C158.828 18.8408 159.365 18.5915 159.826 18.2463C160.305 17.8916 160.688 17.4313 160.986 16.8656C161.283 16.2999 161.436 15.6 161.436 14.8042C161.436 14.3823 161.34 13.9508 161.158 13.5289C160.967 13.1071 160.727 12.6756 160.43 12.2537Z" fill="black"/>
<path d="M146.881 11.6401C147.476 11.2469 147.955 10.7963 148.3 10.3169C148.646 9.82789 148.895 9.31972 149.02 8.80196C149.154 8.29378 149.221 7.81438 149.221 7.40208C149.221 7.07608 149.192 6.72132 149.135 6.35697C149.077 5.97344 148.972 5.57074 148.799 5.18721C148.636 4.7941 148.406 4.41057 148.099 4.04622C147.802 3.67228 147.399 3.34628 146.901 3.06822C146.421 2.79017 145.817 2.56005 145.127 2.39705C144.436 2.22446 143.612 2.13817 142.672 2.13817H137.341V18.86H140.17V12.6468H141.618L146.153 18.7737L146.22 18.86H149.691L144.925 12.4167C145.702 12.2345 146.354 11.9852 146.881 11.6401ZM141.33 11.1223H140.179V3.63393H141.359C141.982 3.63393 142.605 3.68187 143.209 3.78734C143.794 3.88322 144.312 4.07498 144.772 4.34345C145.223 4.61192 145.587 4.98586 145.855 5.46527C146.124 5.94468 146.268 6.5775 146.268 7.35414C146.268 8.04449 146.153 8.62937 145.932 9.10878C145.712 9.5786 145.376 9.96213 144.964 10.2594C144.542 10.5566 144.024 10.7771 143.42 10.9114C142.787 11.0552 142.087 11.1223 141.33 11.1223Z" fill="black"/>
<path d="M123.41 18.8504H133.813V17.345H126.248V9.65531H133.583V8.14997H126.248V3.63393H133.813V2.12859H123.41V18.8504Z" fill="black"/>
<path d="M117.618 4.56399C116.803 3.80652 115.777 3.21205 114.579 2.78058C113.39 2.34911 111.99 2.12859 110.418 2.12859H105.537V18.8504H110.418C111.98 18.8504 113.38 18.6299 114.579 18.1984C115.787 17.7669 116.803 17.1629 117.618 16.415C118.433 15.6575 119.057 14.7658 119.469 13.7495C119.891 12.7331 120.102 11.6305 120.102 10.4703C120.102 9.31973 119.891 8.22667 119.469 7.21991C119.057 6.21315 118.433 5.31186 117.618 4.56399ZM116.803 13.0304C116.583 13.7303 116.286 14.3439 115.912 14.8521C115.547 15.3507 115.106 15.763 114.608 16.0794C114.109 16.4054 113.572 16.6643 113.016 16.856C112.45 17.0382 111.865 17.1725 111.271 17.2396C110.676 17.3067 110.092 17.345 109.526 17.345H108.375V3.63393H109.526C110.092 3.63393 110.676 3.67228 111.271 3.7394C111.865 3.80652 112.45 3.94075 113.016 4.13252C113.572 4.31469 114.109 4.57357 114.608 4.90916C115.106 5.23516 115.538 5.64745 115.912 6.14604C116.286 6.65421 116.583 7.26785 116.803 7.97738C117.024 8.68691 117.129 9.54025 117.129 10.5087C117.129 11.4771 117.014 12.3208 116.803 13.0304Z" fill="black"/>
<path d="M99.6213 14.8425L90.57 2.12859H87.1087L88.7579 4.48728V18.8504H90.3112V6.65421L99.0076 18.8504H101.175V2.12859H99.6213V14.8425Z" fill="black"/>
<path d="M81.4133 16.2328C80.9147 16.3958 80.4545 16.5492 80.0326 16.6739C79.5724 16.7985 79.1217 16.9136 78.6998 16.9999C78.2876 17.0862 77.8753 17.1533 77.4726 17.1916C77.0699 17.23 76.6576 17.2587 76.2357 17.2587C75.7563 17.2587 75.3823 17.182 75.1235 17.019C74.8646 16.856 74.6728 16.6643 74.5482 16.4629C74.4235 16.2424 74.3468 16.0123 74.318 15.8013C74.2893 15.552 74.2797 15.3603 74.2797 15.2356V2.12859H71.4416V16.1657C71.4416 16.252 71.4512 16.3862 71.4608 16.5684V16.578C71.4799 16.7602 71.5279 16.9615 71.6046 17.182C71.6813 17.4026 71.7964 17.6327 71.9402 17.8628C72.0936 18.1025 72.3045 18.323 72.5634 18.5244C72.8223 18.7161 73.1483 18.8696 73.5318 18.9846C73.9153 19.1093 74.3852 19.1668 74.9221 19.1668C75.1714 19.1668 75.459 19.1476 75.7659 19.1189C76.0823 19.0997 76.4274 19.0517 76.7822 18.9942C77.137 18.9367 77.5013 18.86 77.8849 18.7737C78.2588 18.6874 78.6423 18.5723 79.0067 18.4477L81.3941 17.6423V18.8408H84.2226V2.12859H81.3941V16.2328H81.4133Z" fill="black"/>
<path d="M67.1653 6.04056C66.7817 5.39815 66.3119 4.80368 65.775 4.27633C65.238 3.74898 64.634 3.28875 63.982 2.91481C63.33 2.53128 62.6109 2.24364 61.863 2.04229C61.1055 1.83135 60.3097 1.72588 59.4947 1.72588C58.6797 1.72588 57.8743 1.83135 57.1169 2.04229C56.369 2.25323 55.6499 2.54087 54.9883 2.91481C54.3363 3.28875 53.7226 3.74898 53.1761 4.27633C52.6392 4.80368 52.1693 5.39815 51.7858 6.04056C51.4023 6.68297 51.0955 7.38291 50.8749 8.1212C50.664 8.85949 50.5585 9.63613 50.5585 10.4224C50.5585 11.2278 50.664 12.014 50.8749 12.7619C51.0955 13.5002 51.3927 14.2001 51.7858 14.8521C52.1693 15.4945 52.6392 16.089 53.1761 16.6163C53.7226 17.1437 54.3267 17.6039 54.9883 17.9874C55.6499 18.3614 56.369 18.649 57.1169 18.86C57.8743 19.0709 58.6797 19.1764 59.4947 19.1764C60.3097 19.1764 61.0959 19.0709 61.8534 18.86C62.6013 18.649 63.3204 18.3614 63.9724 17.9874C64.6244 17.6039 65.2285 17.1437 65.7654 16.6163C66.3119 16.089 66.7817 15.4945 67.1557 14.8521C67.5392 14.2001 67.846 13.5002 68.057 12.7619C68.2775 12.014 68.383 11.2278 68.383 10.4224C68.383 9.63613 68.2775 8.85949 68.057 8.1212C67.8556 7.38291 67.5488 6.68297 67.1653 6.04056ZM65.0175 13.2988C64.7586 14.1713 64.3847 14.948 63.8861 15.5904C63.3875 16.2328 62.7643 16.7506 62.026 17.1149C61.2973 17.4889 60.4535 17.671 59.4947 17.671C58.5359 17.671 57.673 17.4793 56.9443 17.1149C56.206 16.741 55.5827 16.2328 55.0937 15.5904C54.6047 14.9384 54.2212 14.1713 53.9719 13.2988C53.713 12.4071 53.5884 11.4387 53.5884 10.4224C53.5884 9.40601 53.713 8.4472 53.9623 7.56508C54.2212 6.69256 54.5952 5.9255 55.0842 5.28309C55.5827 4.65027 56.1964 4.1421 56.9251 3.77775C57.6538 3.40381 58.5263 3.22163 59.5043 3.22163C60.4631 3.22163 61.3261 3.4134 62.0644 3.77775C62.8026 4.1421 63.4163 4.65027 63.9053 5.28309C64.4039 5.9255 64.7874 6.69256 65.0367 7.56508C65.2956 8.4472 65.4202 9.40601 65.4202 10.4224C65.4202 11.4387 65.286 12.4071 65.0175 13.2988Z" fill="black"/>
<path d="M38.0363 18.8504H40.8648V9.65531H48.1902V8.14997H40.8648V3.63393H48.4203V2.12859H38.0363V18.8504Z" fill="black"/>
<path d="M33.6737 6.04056C33.2902 5.39815 32.8203 4.80368 32.2834 4.27633C31.7465 3.74898 31.1424 3.28875 30.4904 2.91481C29.8384 2.53128 29.1193 2.24364 28.3714 2.04229C27.614 1.83135 26.8181 1.72588 26.0127 1.72588C25.1977 1.72588 24.3923 1.83135 23.6349 2.04229C22.887 2.25323 22.1679 2.54087 21.5063 2.91481C20.8543 3.28875 20.2406 3.74898 19.6941 4.27633C19.1572 4.80368 18.6874 5.39815 18.3038 6.04056C17.9203 6.68297 17.6135 7.38291 17.3929 8.1212C17.182 8.85949 17.0765 9.63613 17.0765 10.4224C17.0765 11.2278 17.182 12.014 17.3929 12.7619C17.6135 13.5002 17.9107 14.2001 18.3038 14.8521C18.6874 15.4945 19.1572 16.089 19.6941 16.6163C20.2406 17.1437 20.8447 17.6039 21.5063 17.9874C22.1679 18.3614 22.887 18.649 23.6349 18.86C24.3923 19.0709 25.1977 19.1764 26.0127 19.1764C26.8277 19.1764 27.614 19.0709 28.3714 18.86C29.1193 18.649 29.8384 18.3614 30.4904 17.9874C31.1424 17.6039 31.7465 17.1437 32.2834 16.6163C32.8299 16.089 33.2998 15.4945 33.6737 14.8521C34.0572 14.2001 34.364 13.5002 34.575 12.7619C34.7955 12.014 34.901 11.2278 34.901 10.4224C34.901 9.62654 34.7955 8.85949 34.575 8.1212C34.364 7.38291 34.0668 6.68297 33.6737 6.04056ZM31.5355 13.2988C31.2766 14.1713 30.9027 14.948 30.4041 15.5904C29.9055 16.2328 29.2823 16.7506 28.5536 17.1149C27.8249 17.4889 26.9811 17.671 26.0223 17.671C25.0635 17.671 24.2006 17.4793 23.4719 17.1149C22.7336 16.741 22.1103 16.2328 21.6213 15.5904C21.1323 14.9384 20.7488 14.1713 20.4995 13.2988C20.2406 12.4071 20.116 11.4387 20.116 10.4224C20.116 9.40601 20.2406 8.4472 20.4899 7.56508C20.7488 6.69256 21.1228 5.9255 21.6117 5.28309C22.1103 4.65027 22.724 4.1421 23.4527 3.77775C24.1814 3.40381 25.0539 3.22163 26.0319 3.22163C26.9907 3.22163 27.8537 3.4134 28.592 3.77775C29.3302 4.1421 29.9439 4.65027 30.4329 5.28309C30.9315 5.9255 31.315 6.69256 31.5643 7.56508C31.8232 8.4472 31.9478 9.40601 31.9478 10.4224C31.9286 11.4387 31.7944 12.4071 31.5355 13.2988Z" fill="black"/>
<path d="M14.8905 15.4657C14.5645 15.8205 14.1905 16.1369 13.7686 16.4054C13.3563 16.6834 12.8961 16.9136 12.4263 17.1053C11.9565 17.2971 11.4483 17.4409 10.9401 17.5464C10.4319 17.6423 9.92377 17.6998 9.42519 17.6998C8.39925 17.6998 7.4692 17.508 6.68297 17.1437C5.88715 16.7602 5.21597 16.2424 4.67904 15.6C4.1421 14.948 3.7298 14.1905 3.45175 13.3276C3.17369 12.4646 3.03946 11.525 3.03946 10.547C3.03946 9.54025 3.18328 8.59102 3.47092 7.71849C3.74898 6.84597 4.17086 6.07891 4.71739 5.4365C5.25433 4.7941 5.93509 4.27633 6.72132 3.90239C7.51714 3.52846 8.4376 3.34628 9.46354 3.34628C9.94295 3.34628 10.4224 3.40381 10.9018 3.50928C11.3812 3.60516 11.8414 3.74898 12.2825 3.93116C12.7235 4.10375 13.1454 4.3051 13.5385 4.55439C13.9316 4.7941 14.3056 5.06257 14.6316 5.33103L14.8042 5.47486L15.6767 4.32428L15.5233 4.19004C14.6699 3.44216 13.6728 2.85728 12.5701 2.44499C11.4675 2.02311 10.2594 1.80258 8.96496 1.80258C8.14037 1.80258 7.33496 1.90805 6.5775 2.11899C5.80085 2.31076 5.07215 2.60799 4.41057 2.99152C3.75857 3.36546 3.14493 3.82569 2.5984 4.35304C2.06146 4.88039 1.59164 5.47486 1.20811 6.12685C0.824584 6.76926 0.52735 7.4692 0.306822 8.21708C0.10547 8.96496 0 9.7416 0 10.5374C0 11.3332 0.10547 12.1099 0.31641 12.8578C0.536938 13.5865 0.834172 14.2864 1.2177 14.9192C1.60123 15.5616 2.07105 16.1561 2.60799 16.6834C3.15451 17.2012 3.75857 17.6614 4.41057 18.045C5.07215 18.4285 5.79127 18.7161 6.54873 18.9175C7.3062 19.1284 8.11161 19.2339 8.93619 19.2339C10.2977 19.2339 11.5825 18.9942 12.7427 18.5244C13.9029 18.0546 14.9384 17.393 15.8109 16.5684L15.9547 16.4342L15.0535 15.2836L14.8905 15.4657Z" fill="black"/>
<path d="M189.357 11.4579C189.635 11.9277 189.971 12.3496 190.354 12.7427C190.747 13.1166 191.179 13.4522 191.649 13.7303C192.128 14.0083 192.636 14.2193 193.183 14.3631C193.729 14.5165 194.305 14.5932 194.899 14.5932C195.877 14.5932 196.788 14.4206 197.613 14.085C198.437 13.7495 199.175 13.2701 199.808 12.666L200 12.4742L199.175 11.4099L198.936 11.6784C198.715 11.9181 198.466 12.1386 198.178 12.3208C197.891 12.5126 197.593 12.6756 197.267 12.8098C196.941 12.9441 196.606 13.0399 196.261 13.1166C195.915 13.1838 195.57 13.2221 195.235 13.2221C194.535 13.2221 193.911 13.0975 193.384 12.8386C192.847 12.5797 192.397 12.2249 192.032 11.7839C191.668 11.3428 191.39 10.8155 191.198 10.221C191.006 9.61695 190.91 8.97454 190.91 8.29378C190.91 7.59384 191.006 6.94185 191.198 6.3282C191.39 5.73374 191.668 5.1968 192.042 4.75574C192.406 4.31468 192.857 3.95992 193.394 3.71063C193.931 3.45175 194.554 3.3271 195.244 3.3271C195.57 3.3271 195.896 3.36545 196.213 3.43257C196.539 3.49969 196.855 3.59557 197.152 3.72022C197.45 3.83527 197.737 3.9791 198.006 4.15168C198.274 4.31468 198.523 4.49686 198.744 4.68862L198.993 4.89956L199.779 3.84486L199.569 3.66269C198.955 3.12575 198.245 2.69428 197.459 2.39705C196.673 2.09022 195.81 1.93681 194.88 1.93681C194.285 1.93681 193.71 2.01352 193.164 2.16693C192.617 2.32034 192.109 2.53128 191.629 2.80934C191.16 3.07781 190.728 3.41339 190.335 3.79692C189.952 4.18045 189.616 4.61192 189.338 5.09133C189.069 5.56115 188.849 6.06932 188.696 6.60626C188.542 7.15279 188.475 7.71849 188.475 8.29378C188.475 8.86907 188.552 9.44436 188.705 9.9813C188.868 10.4895 189.089 10.9881 189.357 11.4579Z" fill="black"/>
<path d="M182.54 14.3152H184.755V8.73484L188.101 2.14775H186.5L184.007 7.01855L181.361 2.14775H178.695L182.54 8.84031V14.3152Z" fill="black"/>
<path d="M168.244 14.3152H169.625V5.98303L175.473 14.3152H177.218V2.14775H175.828V10.8442L169.73 2.14775H166.95L168.244 4.01745V14.3152Z" fill="black"/>
<path d="M199.981 17.345H163.737V18.8312H199.981V17.345Z" fill="black"/>
<path d="M165.962 12.8386H163.737V14.3248H165.962V12.8386Z" fill="black"/>
</svg>
