<svg width="450" height="54" viewBox="0 0 450 54" fill="none" xmlns="http://www.w3.org/2000/svg">
<path d="M347.373 50.5624C344.457 50.5624 341.842 50.0479 339.526 49.0189C337.211 47.947 335.367 46.5106 333.995 44.7098C332.666 42.909 331.937 40.9153 331.809 38.7286H340.877C341.048 40.1006 341.713 41.2369 342.871 42.1373C344.071 43.0377 345.55 43.4879 347.308 43.4879C349.023 43.4879 350.353 43.1449 351.296 42.4588C352.282 41.7728 352.775 40.8939 352.775 39.8219C352.775 38.6643 352.175 37.8068 350.974 37.2494C349.817 36.6491 347.952 36.006 345.379 35.3199C342.721 34.6768 340.534 34.0122 338.819 33.3262C337.147 32.6402 335.689 31.5897 334.445 30.1748C333.245 28.7599 332.645 26.8519 332.645 24.4508C332.645 22.4785 333.202 20.6777 334.317 19.0484C335.475 17.4191 337.104 16.1328 339.205 15.1895C341.349 14.2463 343.857 13.7746 346.73 13.7746C350.974 13.7746 354.362 14.8465 356.891 16.9903C359.421 19.0913 360.814 21.9426 361.072 25.5442H352.454C352.325 24.1292 351.725 23.0145 350.653 22.1998C349.624 21.3423 348.23 20.9135 346.472 20.9135C344.843 20.9135 343.578 21.2137 342.678 21.8139C341.82 22.4142 341.391 23.2503 341.391 24.3222C341.391 25.5227 341.992 26.4446 343.192 27.0877C344.393 27.688 346.258 28.3097 348.788 28.9528C351.36 29.596 353.483 30.2605 355.155 30.9466C356.827 31.6326 358.263 32.7045 359.464 34.1623C360.707 35.5772 361.35 37.4638 361.393 39.8219C361.393 41.88 360.814 43.7237 359.657 45.353C358.542 46.9823 356.913 48.2686 354.769 49.2118C352.668 50.1123 350.202 50.5624 347.373 50.5624Z" fill="#2E2A23"/>
<path d="M317.384 19.8845C318.542 17.9979 320.042 16.5187 321.886 15.4468C323.772 14.3749 325.916 13.8389 328.317 13.8389V23.2931H325.938C323.108 23.2931 320.964 23.9577 319.506 25.2869C318.091 26.6161 317.384 28.9314 317.384 32.2328V49.9836H308.38V14.3534H317.384V19.8845Z" fill="#2E2A23"/>
<path d="M302.449 31.3968C302.449 32.6831 302.363 33.8407 302.192 34.8697H276.144C276.359 37.4423 277.259 39.4575 278.846 40.9153C280.432 42.3731 282.383 43.102 284.698 43.102C288.043 43.102 290.422 41.6656 291.837 38.7929H301.549C300.52 42.223 298.547 45.0529 295.632 47.2824C292.716 49.4691 289.136 50.5624 284.891 50.5624C281.461 50.5624 278.374 49.8121 275.63 48.3114C272.929 46.7679 270.806 44.6027 269.263 41.8157C267.762 39.0287 267.012 35.813 267.012 32.1685C267.012 28.4812 267.762 25.244 269.263 22.4571C270.763 19.6701 272.864 17.5263 275.566 16.0256C278.267 14.525 281.375 13.7746 284.891 13.7746C288.278 13.7746 291.301 14.5035 293.959 15.9613C296.661 17.4191 298.74 19.4986 300.198 22.1998C301.699 24.8581 302.449 27.9238 302.449 31.3968ZM293.123 28.8242C293.08 26.5089 292.244 24.6652 290.615 23.2932C288.986 21.8782 286.992 21.1708 284.634 21.1708C282.404 21.1708 280.518 21.8568 278.974 23.2288C277.474 24.558 276.552 26.4231 276.209 28.8242H293.123Z" fill="#2E2A23"/>
<path d="M224.068 32.0399C224.068 28.4383 224.776 25.244 226.191 22.457C227.649 19.6701 229.621 17.5263 232.108 16.0256C234.594 14.5249 237.36 13.7746 240.404 13.7746C242.72 13.7746 244.928 14.2891 247.029 15.3181C249.13 16.3043 250.802 17.6335 252.045 19.3056V2.39096H261.178V49.9836H252.045V44.7098C250.93 46.4677 249.365 47.8827 247.35 48.9546C245.335 50.0265 242.998 50.5624 240.34 50.5624C237.339 50.5624 234.594 49.7907 232.108 48.2471C229.621 46.7036 227.649 44.5383 226.191 41.7514C224.776 38.9215 224.068 35.6844 224.068 32.0399ZM252.109 32.1685C252.109 29.9818 251.681 28.1167 250.823 26.5732C249.966 24.9867 248.808 23.7862 247.35 22.9716C245.892 22.114 244.327 21.6853 242.655 21.6853C240.983 21.6853 239.439 22.0926 238.025 22.9072C236.61 23.7219 235.452 24.9224 234.552 26.5088C233.694 28.0524 233.265 29.8961 233.265 32.0399C233.265 34.1837 233.694 36.0703 234.552 37.6996C235.452 39.286 236.61 40.5079 238.025 41.3655C239.482 42.223 241.026 42.6518 242.655 42.6518C244.327 42.6518 245.892 42.2444 247.35 41.4298C248.808 40.5723 249.966 39.3717 250.823 37.8282C251.681 36.2418 252.109 34.3552 252.109 32.1685Z" fill="#2E2A23"/>
<path d="M204.251 13.8389C208.496 13.8389 211.926 15.1895 214.542 17.8907C217.157 20.5491 218.465 24.2793 218.465 29.0814V49.9836H209.461V30.3034C209.461 27.4736 208.753 25.3083 207.338 23.8077C205.924 22.2641 203.994 21.4923 201.55 21.4923C199.063 21.4923 197.091 22.2641 195.633 23.8077C194.218 25.3083 193.511 27.4736 193.511 30.3034V49.9836H184.507V14.3534H193.511V18.7911C194.711 17.2476 196.233 16.0471 198.077 15.1895C199.964 14.2891 202.022 13.8389 204.251 13.8389Z" fill="#2E2A23"/>
<path d="M176.267 14.3535V49.9836H167.198V45.4816C166.041 47.0252 164.518 48.2471 162.632 49.1475C160.788 50.0051 158.773 50.4338 156.586 50.4338C153.799 50.4338 151.334 49.855 149.19 48.6973C147.046 47.4968 145.353 45.7603 144.109 43.4879C142.909 41.1725 142.309 38.4285 142.309 35.2556V14.3535H151.313V33.9693C151.313 36.7992 152.02 38.9859 153.435 40.5294C154.85 42.0301 156.779 42.7804 159.223 42.7804C161.71 42.7804 163.661 42.0301 165.076 40.5294C166.491 38.9859 167.198 36.7992 167.198 33.9693V14.3535H176.267Z" fill="#2E2A23"/>
<path d="M118.081 50.5624C114.651 50.5624 111.564 49.8121 108.82 48.3114C106.076 46.7679 103.911 44.6027 102.324 41.8157C100.781 39.0287 100.009 35.813 100.009 32.1685C100.009 28.5241 100.802 25.3083 102.388 22.5214C104.018 19.7344 106.226 17.5906 109.013 16.0899C111.8 14.5464 114.908 13.7746 118.338 13.7746C121.768 13.7746 124.877 14.5464 127.664 16.0899C130.451 17.5906 132.638 19.7344 134.224 22.5214C135.853 25.3083 136.668 28.5241 136.668 32.1685C136.668 35.813 135.832 39.0287 134.16 41.8157C132.53 44.6027 130.301 46.7679 127.471 48.3114C124.684 49.8121 121.554 50.5624 118.081 50.5624ZM118.081 42.7161C119.71 42.7161 121.233 42.3302 122.647 41.5584C124.105 40.7438 125.263 39.5433 126.12 37.9568C126.978 36.3704 127.407 34.441 127.407 32.1685C127.407 28.7813 126.506 26.1873 124.706 24.3865C122.948 22.5428 120.782 21.621 118.21 21.621C115.637 21.621 113.472 22.5428 111.714 24.3865C109.999 26.1873 109.141 28.7813 109.141 32.1685C109.141 35.5558 109.978 38.1712 111.65 40.0149C113.365 41.8157 115.509 42.7161 118.081 42.7161Z" fill="#2E2A23"/>
<path d="M97.0675 21.7496H90.829V49.9836H81.6963V21.7496H77.6445V14.3535H81.6963V12.5527C81.6963 8.17927 82.9397 4.96356 85.4266 2.90549C87.9134 0.847435 91.6651 -0.11728 96.6816 0.0113498V7.60044C94.4949 7.55757 92.9728 7.92202 92.1153 8.69379C91.2577 9.46556 90.829 10.859 90.829 12.8742V14.3535H97.0675V21.7496Z" fill="#2E2A23"/>
<path d="M56.1817 50.5624C52.7516 50.5624 49.6645 49.8121 46.9204 48.3114C44.1764 46.7679 42.0111 44.6027 40.4247 41.8157C38.8811 39.0287 38.1094 35.813 38.1094 32.1685C38.1094 28.5241 38.9026 25.3083 40.489 22.5214C42.1183 19.7344 44.3264 17.5906 47.1134 16.0899C49.9003 14.5464 53.0089 13.7746 56.439 13.7746C59.8691 13.7746 62.9776 14.5464 65.7646 16.0899C68.5515 17.5906 70.7382 19.7344 72.3246 22.5214C73.9539 25.3083 74.7686 28.5241 74.7686 32.1685C74.7686 35.813 73.9325 39.0287 72.2603 41.8157C70.631 44.6027 68.4014 46.7679 65.5716 48.3114C62.7847 49.8121 59.6547 50.5624 56.1817 50.5624ZM56.1817 42.7161C57.811 42.7161 59.3331 42.3302 60.748 41.5584C62.2058 40.7438 63.3635 39.5433 64.221 37.9568C65.0785 36.3704 65.5073 34.441 65.5073 32.1685C65.5073 28.7813 64.6069 26.1873 62.8061 24.3865C61.0482 22.5428 58.8829 21.621 56.3103 21.621C53.7378 21.621 51.5725 22.5428 49.8146 24.3865C48.0995 26.1873 47.242 28.7813 47.242 32.1685C47.242 35.5558 48.0781 38.1712 49.7503 40.0149C51.4653 41.8157 53.6091 42.7161 56.1817 42.7161Z" fill="#2E2A23"/>
<path d="M0 32.1685C0 28.4812 0.750334 25.2655 2.251 22.5214C3.75167 19.7344 5.83117 17.5906 8.4895 16.0899C11.1478 14.5464 14.192 13.7746 17.6221 13.7746C22.0384 13.7746 25.6829 14.8894 28.5556 17.119C31.4712 19.3057 33.422 22.3928 34.4082 26.3802H24.6967C24.1822 24.8367 23.3032 23.6362 22.0598 22.7786C20.8593 21.8782 19.3586 21.428 17.5578 21.428C14.9852 21.428 12.9486 22.3713 11.448 24.2579C9.94729 26.1016 9.19696 28.7384 9.19696 32.1685C9.19696 35.5558 9.94729 38.1926 11.448 40.0792C12.9486 41.9229 14.9852 42.8447 17.5578 42.8447C21.2023 42.8447 23.5819 41.2154 24.6967 37.9568H34.4082C33.422 41.8157 31.4712 44.8813 28.5556 47.1538C25.64 49.4262 21.9955 50.5624 17.6221 50.5624C14.192 50.5624 11.1478 49.8121 8.4895 48.3114C5.83117 46.7679 3.75167 44.6241 2.251 41.88C0.750334 39.0931 0 35.8559 0 32.1685Z" fill="#2E2A23"/>
<path d="M449.317 43.3071H369.712V49.7782H449.317V43.3071Z" fill="#EBE0D0"/>
<path d="M428.855 23.2964C428.855 21.0582 429.306 19.1031 430.206 17.4309C431.132 15.7587 432.406 14.4724 434.026 13.572C435.673 12.6716 437.551 12.2214 439.66 12.2214C442.361 12.2214 444.612 12.9289 446.413 14.3438C448.24 15.7587 449.436 17.7525 450.002 20.325H442.979C442.387 18.6786 441.242 17.8554 439.545 17.8554C438.335 17.8554 437.371 18.3313 436.65 19.2832C435.93 20.2093 435.57 21.547 435.57 23.2964C435.57 25.0457 435.93 26.3963 436.65 27.3482C437.371 28.2743 438.335 28.7374 439.545 28.7374C441.242 28.7374 442.387 27.9141 442.979 26.2677H450.002C449.436 28.7888 448.24 30.7697 446.413 32.2103C444.587 33.651 442.336 34.3713 439.66 34.3713C437.551 34.3713 435.673 33.9211 434.026 33.0207C432.406 32.1203 431.132 30.834 430.206 29.1618C429.306 27.4897 428.855 25.5345 428.855 23.2964Z" fill="#2E2A23"/>
<path d="M428.168 12.5302L416.09 41.5096H408.989L412.501 33.3294L403.741 12.5302H411.112L416.09 25.9976L421.029 12.5302H428.168Z" fill="#2E2A23"/>
<path d="M393.676 12.2986C396.197 12.2986 398.204 13.1218 399.696 14.7683C401.213 16.389 401.972 18.6271 401.972 21.4827V34.0626H395.412V22.3702C395.412 20.9296 395.039 19.8105 394.293 19.013C393.547 18.2155 392.544 17.8168 391.283 17.8168C390.023 17.8168 389.019 18.2155 388.273 19.013C387.527 19.8105 387.154 20.9296 387.154 22.3702V34.0626H380.556V12.5301H387.154V15.3857C387.823 14.4339 388.724 13.6878 389.856 13.1476C390.987 12.5816 392.261 12.2986 393.676 12.2986Z" fill="#2E2A23"/>
<path d="M373.138 34.3713C371.981 34.3713 371.029 34.0369 370.283 33.368C369.562 32.6734 369.202 31.8245 369.202 30.8211C369.202 29.7921 369.562 28.9303 370.283 28.2357C371.029 27.5411 371.981 27.1938 373.138 27.1938C374.27 27.1938 375.196 27.5411 375.917 28.2357C376.663 28.9303 377.036 29.7921 377.036 30.8211C377.036 31.8245 376.663 32.6734 375.917 33.368C375.196 34.0369 374.27 34.3713 373.138 34.3713Z" fill="#2E2A23"/>
</svg>
