<svg width="200" height="24" viewBox="0 0 200 24" fill="none" xmlns="http://www.w3.org/2000/svg">
<path d="M196.442 20.8555H163.069V23.6757H196.442V20.8555Z" fill="#2DF9B0"/>
<path d="M153.596 24C152.731 24 151.898 23.8919 151.098 23.6757C150.298 23.4378 149.563 23.1135 148.893 22.7027C148.223 22.2703 147.639 21.7513 147.142 21.1459L149.412 18.8757C149.952 19.5027 150.569 19.9784 151.261 20.3027C151.974 20.6054 152.774 20.7567 153.661 20.7567C154.461 20.7567 155.066 20.6378 155.477 20.4C155.888 20.1621 156.093 19.8162 156.093 19.3621C156.093 18.8865 155.898 18.5189 155.509 18.2594C155.12 18 154.612 17.7838 153.985 17.6108C153.379 17.4162 152.731 17.2216 152.039 17.027C151.369 16.8324 150.72 16.573 150.093 16.2486C149.488 15.9027 148.99 15.4378 148.601 14.854C148.212 14.2703 148.017 13.5135 148.017 12.5838C148.017 11.5892 148.244 10.7351 148.698 10.0216C149.174 9.30809 149.833 8.75674 150.677 8.36755C151.542 7.97836 152.569 7.78377 153.758 7.78377C155.012 7.78377 156.115 8.0108 157.066 8.46485C158.039 8.89728 158.85 9.55674 159.498 10.4432L157.228 12.7135C156.774 12.1513 156.255 11.7297 155.671 11.4486C155.088 11.1676 154.417 11.027 153.661 11.027C152.947 11.027 152.396 11.1351 152.006 11.3513C151.617 11.5676 151.423 11.8811 151.423 12.2919C151.423 12.7243 151.617 13.0594 152.006 13.2973C152.396 13.5351 152.893 13.7405 153.498 13.9135C154.125 14.0865 154.774 14.2811 155.444 14.4973C156.136 14.6919 156.785 14.973 157.39 15.3405C158.017 15.6865 158.525 16.1621 158.915 16.7675C159.304 17.3513 159.498 18.1189 159.498 19.0703C159.498 20.5838 158.969 21.7838 157.909 22.6703C156.85 23.5567 155.412 24 153.596 24Z" fill="black"/>
<path d="M135.645 23.6757V8.10809H139.212V23.6757H135.645ZM139.212 15.0162L137.98 14.4C137.98 12.4324 138.412 10.8432 139.277 9.63242C140.163 8.39998 141.493 7.78377 143.266 7.78377C144.045 7.78377 144.747 7.92431 145.374 8.20539C146.001 8.48647 146.585 8.94052 147.126 9.56755L144.79 11.9676C144.509 11.6648 144.196 11.4486 143.85 11.3189C143.504 11.1892 143.104 11.1243 142.65 11.1243C141.655 11.1243 140.834 11.4378 140.185 12.0648C139.536 12.6919 139.212 13.6757 139.212 15.0162Z" fill="black"/>
<path d="M125.552 24C123.996 24 122.59 23.654 121.336 22.9621C120.104 22.2486 119.12 21.2757 118.385 20.0432C117.671 18.8108 117.314 17.427 117.314 15.8919C117.314 14.3567 117.671 12.9838 118.385 11.773C119.098 10.5405 120.06 9.56755 121.271 8.85404C122.504 8.14052 123.866 7.78377 125.358 7.78377C126.806 7.78377 128.082 8.1189 129.185 8.78917C130.309 9.45944 131.185 10.3784 131.812 11.5459C132.46 12.7135 132.785 14.0432 132.785 15.5351C132.785 15.7946 132.763 16.0648 132.72 16.3459C132.698 16.6054 132.655 16.8973 132.59 17.2216H119.812V14.3027H130.741L129.412 15.4703C129.369 14.5189 129.185 13.7189 128.86 13.0703C128.536 12.4216 128.071 11.9243 127.466 11.5784C126.882 11.2324 126.158 11.0594 125.293 11.0594C124.385 11.0594 123.596 11.254 122.925 11.6432C122.255 12.0324 121.736 12.5838 121.369 13.2973C121.001 13.9892 120.817 14.8216 120.817 15.7946C120.817 16.7675 121.012 17.6216 121.401 18.3567C121.79 19.0919 122.341 19.6648 123.055 20.0757C123.768 20.4648 124.59 20.6594 125.52 20.6594C126.32 20.6594 127.055 20.5189 127.725 20.2378C128.417 19.9567 129.001 19.5459 129.477 19.0054L131.747 21.3081C130.99 22.1946 130.071 22.8648 128.99 23.3189C127.909 23.773 126.763 24 125.552 24Z" fill="black"/>
<path d="M106.025 24C104.62 24 103.344 23.6432 102.198 22.9297C101.074 22.2162 100.176 21.254 99.5062 20.0432C98.8575 18.8108 98.5332 17.4378 98.5332 15.9243C98.5332 14.3892 98.8575 13.0162 99.5062 11.8054C100.176 10.5729 101.074 9.59997 102.198 8.88645C103.344 8.15132 104.62 7.78375 106.025 7.78375C107.214 7.78375 108.263 8.04321 109.171 8.56213C110.101 9.05943 110.836 9.75132 111.376 10.6378C111.917 11.5243 112.187 12.5297 112.187 13.654V18.1297C112.187 19.254 111.917 20.2594 111.376 21.1459C110.858 22.0324 110.133 22.7351 109.203 23.254C108.274 23.7513 107.214 24 106.025 24ZM106.609 20.627C107.495 20.627 108.263 20.4324 108.912 20.0432C109.582 19.6324 110.101 19.0702 110.468 18.3567C110.836 17.6432 111.02 16.8216 111.02 15.8919C111.02 14.9621 110.836 14.1405 110.468 13.427C110.101 12.7135 109.582 12.1621 108.912 11.7729C108.263 11.3621 107.495 11.1567 106.609 11.1567C105.744 11.1567 104.976 11.3621 104.306 11.7729C103.658 12.1621 103.139 12.7135 102.749 13.427C102.382 14.1405 102.198 14.9621 102.198 15.8919C102.198 16.8216 102.382 17.6432 102.749 18.3567C103.139 19.0702 103.658 19.6324 104.306 20.0432C104.976 20.4324 105.744 20.627 106.609 20.627ZM114.36 23.6756H110.793V19.4919L111.409 15.6973L110.793 11.9351V0.324295H114.36V23.6756Z" fill="black"/>
<path d="M92.3128 23.6756V14.6918C92.3128 13.654 91.9777 12.8 91.3074 12.1297C90.6588 11.4594 89.8156 11.1243 88.7777 11.1243C88.0858 11.1243 87.4696 11.2756 86.9291 11.5783C86.3885 11.881 85.9669 12.3027 85.6642 12.8432C85.3615 13.3837 85.2101 14 85.2101 14.6918L83.8156 13.9135C83.8156 12.7243 84.075 11.6756 84.5939 10.7675C85.1129 9.83779 85.8264 9.11347 86.7345 8.59455C87.6642 8.05401 88.702 7.78374 89.848 7.78374C91.0155 7.78374 92.0534 8.08644 92.9615 8.69185C93.8696 9.27563 94.5831 10.0432 95.102 10.9945C95.6209 11.9243 95.8804 12.8972 95.8804 13.9135V23.6756H92.3128ZM81.6426 23.6756V8.10806H85.2101V23.6756H81.6426Z" fill="black"/>
<path d="M71.2784 24C69.9595 24 68.7811 23.7081 67.7432 23.1243C66.727 22.5405 65.927 21.7405 65.3432 20.7243C64.7811 19.6865 64.5 18.4973 64.5 17.1568V8.10811H68.0676V16.9946C68.0676 17.7513 68.1865 18.4 68.4243 18.9405C68.6838 19.4595 69.0514 19.8595 69.527 20.1405C70.0243 20.4216 70.6081 20.5622 71.2784 20.5622C72.3162 20.5622 73.1054 20.2595 73.6459 19.6541C74.2081 19.027 74.4892 18.1405 74.4892 16.9946V8.10811H78.0568V17.1568C78.0568 18.5189 77.7649 19.7189 77.1811 20.7568C76.6189 21.773 75.8297 22.573 74.8135 23.1568C73.7973 23.7189 72.6189 24 71.2784 24Z" fill="black"/>
<path d="M53.7489 23.9999C52.2354 23.9999 50.8625 23.6432 49.63 22.9297C48.3976 22.1945 47.4138 21.2108 46.6787 19.9783C45.9652 18.7459 45.6084 17.3729 45.6084 15.8594C45.6084 14.3459 45.9652 12.9837 46.6787 11.7729C47.4138 10.5621 48.3976 9.59995 49.63 8.88644C50.8625 8.1513 52.2354 7.78374 53.7489 7.78374C55.2841 7.78374 56.6679 8.14049 57.9003 8.85401C59.1327 9.56752 60.1057 10.5405 60.8192 11.7729C61.5543 12.9837 61.9219 14.3459 61.9219 15.8594C61.9219 17.3729 61.5543 18.7459 60.8192 19.9783C60.1057 21.2108 59.1327 22.1945 57.9003 22.9297C56.6679 23.6432 55.2841 23.9999 53.7489 23.9999ZM53.7489 20.5621C54.6354 20.5621 55.4138 20.3675 56.0841 19.9783C56.776 19.5675 57.3057 19.0054 57.6733 18.2918C58.0624 17.5783 58.257 16.7675 58.257 15.8594C58.257 14.9513 58.0624 14.1513 57.6733 13.4594C57.2841 12.7675 56.7543 12.227 56.0841 11.8378C55.4138 11.427 54.6354 11.2216 53.7489 11.2216C52.8841 11.2216 52.1057 11.427 51.4138 11.8378C50.7435 12.227 50.2138 12.7675 49.8246 13.4594C49.457 14.1513 49.2733 14.9513 49.2733 15.8594C49.2733 16.7675 49.457 17.5783 49.8246 18.2918C50.2138 19.0054 50.7435 19.5675 51.4138 19.9783C52.1057 20.3675 52.8841 20.5621 53.7489 20.5621Z" fill="black"/>
<path d="M36.4651 23.6757V6.06486C36.4651 4.87567 36.7245 3.82702 37.2435 2.91892C37.784 2.01081 38.5191 1.2973 39.4489 0.778378C40.4002 0.259459 41.4921 0 42.7245 0C43.6759 0 44.4867 0.162162 45.157 0.486486C45.8272 0.81081 46.4543 1.27567 47.0381 1.88108L44.7353 4.18378C44.4759 3.92432 44.1948 3.71892 43.8921 3.56757C43.5894 3.41621 43.2002 3.34054 42.7245 3.34054C41.8597 3.34054 41.1894 3.57838 40.7137 4.05405C40.2597 4.50811 40.0326 5.16757 40.0326 6.03243V23.6757H36.4651ZM32.7354 11.3513V8.10811H44.7353V11.3513H32.7354Z" fill="black"/>
<path d="M23.6288 23.9999C22.1153 23.9999 20.7423 23.6432 19.5099 22.9297C18.2775 22.1945 17.2937 21.2108 16.5586 19.9783C15.845 18.7459 15.4883 17.3729 15.4883 15.8594C15.4883 14.3459 15.845 12.9837 16.5586 11.7729C17.2937 10.5621 18.2775 9.59995 19.5099 8.88644C20.7423 8.1513 22.1153 7.78374 23.6288 7.78374C25.164 7.78374 26.5477 8.14049 27.7802 8.85401C29.0126 9.56752 29.9856 10.5405 30.6991 11.7729C31.4342 12.9837 31.8018 14.3459 31.8018 15.8594C31.8018 17.3729 31.4342 18.7459 30.6991 19.9783C29.9856 21.2108 29.0126 22.1945 27.7802 22.9297C26.5477 23.6432 25.164 23.9999 23.6288 23.9999ZM23.6288 20.5621C24.5153 20.5621 25.2937 20.3675 25.964 19.9783C26.6558 19.5675 27.1856 19.0054 27.5531 18.2918C27.9423 17.5783 28.1369 16.7675 28.1369 15.8594C28.1369 14.9513 27.9423 14.1513 27.5531 13.4594C27.164 12.7675 26.6342 12.227 25.964 11.8378C25.2937 11.427 24.5153 11.2216 23.6288 11.2216C22.764 11.2216 21.9856 11.427 21.2937 11.8378C20.6234 12.227 20.0937 12.7675 19.7045 13.4594C19.3369 14.1513 19.1531 14.9513 19.1531 15.8594C19.1531 16.7675 19.3369 17.5783 19.7045 18.2918C20.0937 19.0054 20.6234 19.5675 21.2937 19.9783C21.9856 20.3675 22.764 20.5621 23.6288 20.5621Z" fill="black"/>
<path d="M8.17297 23.9999C6.63784 23.9999 5.24324 23.6432 3.98919 22.9297C2.75676 22.2162 1.78378 21.2432 1.07027 20.0108C0.356757 18.7783 0 17.4054 0 15.8918C0 14.3567 0.356757 12.9837 1.07027 11.7729C1.78378 10.5405 2.75676 9.56752 3.98919 8.85401C5.24324 8.14049 6.63784 7.78374 8.17297 7.78374C9.38378 7.78374 10.5081 8.02158 11.5459 8.49725C12.6054 8.9513 13.5027 9.61076 14.2378 10.4756L11.9027 12.8432C11.4486 12.3027 10.8973 11.9027 10.2486 11.6432C9.62162 11.3621 8.92973 11.2216 8.17297 11.2216C7.28648 11.2216 6.4973 11.427 5.8054 11.8378C5.13513 12.227 4.6054 12.7675 4.21622 13.4594C3.84865 14.1513 3.66486 14.9621 3.66486 15.8918C3.66486 16.8 3.84865 17.6108 4.21622 18.3243C4.6054 19.0162 5.13513 19.5675 5.8054 19.9783C6.4973 20.3675 7.28648 20.5621 8.17297 20.5621C8.92973 20.5621 9.62162 20.4324 10.2486 20.1729C10.8973 19.8918 11.4486 19.481 11.9027 18.9405L14.2378 21.3081C13.5027 22.1729 12.6054 22.8432 11.5459 23.3189C10.5081 23.7729 9.38378 23.9999 8.17297 23.9999Z" fill="black"/>
<path d="M192.236 17.5182C191.308 17.5182 190.475 17.3114 189.735 16.8978C188.996 16.4841 188.413 15.9201 187.987 15.2056C187.561 14.4912 187.348 13.689 187.348 12.7991C187.348 11.8966 187.561 11.0881 187.987 10.3737C188.413 9.65922 188.996 9.09518 189.735 8.68155C190.487 8.25538 191.321 8.0423 192.236 8.0423C192.95 8.0423 193.609 8.17391 194.21 8.43713C194.812 8.70035 195.332 9.07637 195.771 9.56521L194.191 11.1633C193.953 10.9001 193.665 10.6996 193.327 10.5617C193.001 10.4238 192.637 10.3549 192.236 10.3549C191.785 10.3549 191.377 10.4614 191.014 10.6745C190.663 10.875 190.381 11.1571 190.168 11.5206C189.967 11.8715 189.867 12.2914 189.867 12.7803C189.867 13.2566 189.967 13.6827 190.168 14.0587C190.381 14.4222 190.663 14.7105 191.014 14.9236C191.377 15.1242 191.785 15.2244 192.236 15.2244C192.65 15.2244 193.019 15.1555 193.345 15.0176C193.684 14.8672 193.972 14.6541 194.21 14.3784L195.808 15.9765C195.345 16.4779 194.812 16.8602 194.21 17.1234C193.609 17.3866 192.95 17.5182 192.236 17.5182Z" fill="black"/>
<path fill-rule="evenodd" clip-rule="evenodd" d="M183.251 17.3866L182.108 19.9711H179.529L181.147 16.5493L177.704 8.24915H180.374L182.45 14.0135L184.604 8.24915H187.293L183.251 17.3866Z" fill="black"/>
<path d="M174.386 17.3302V12.1222C174.386 11.5832 174.217 11.1445 173.878 10.8061C173.54 10.4677 173.101 10.2985 172.562 10.2985C172.211 10.2985 171.898 10.3737 171.622 10.5241C171.346 10.6745 171.127 10.8876 170.964 11.1633C170.814 11.4391 170.738 11.7587 170.738 12.1222L169.78 11.6334C169.78 10.9189 169.93 10.2985 170.231 9.77204C170.544 9.23307 170.97 8.81317 171.509 8.51235C172.061 8.21152 172.681 8.06111 173.371 8.06111C174.035 8.06111 174.63 8.23032 175.157 8.56875C175.683 8.89464 176.097 9.32707 176.398 9.86605C176.698 10.3925 176.849 10.9628 176.849 11.577V17.3302H174.386ZM168.275 17.3302V8.24913H170.738V17.3302H168.275Z" fill="black"/>
<path d="M165.889 14.51H163.068V17.3302H165.889V14.51Z" fill="black"/>
</svg>
