<svg width="40" height="40" viewBox="0 0 40 40" fill="none" xmlns="http://www.w3.org/2000/svg">
<path d="M23.75 15C23.5725 15 23.3933 14.9625 23.225 14.8842L20 13.3909L16.775 14.8842C16.3 15.1034 15.7408 15.005 15.37 14.6384C14.9992 14.2717 14.895 13.7125 15.1092 13.2367L18.8592 4.90335C19.0625 4.45502 19.5083 4.16669 20 4.16669C20.4917 4.16669 20.9375 4.45502 21.14 4.90335L24.89 13.2367C25.1042 13.7125 25 14.2717 24.6292 14.6384C24.39 14.875 24.0725 15 23.75 15Z" fill="black"/>
<path d="M2.7 20H10.7" stroke="black" stroke-width="2" stroke-miterlimit="10" stroke-linecap="round"/>
<path d="M20 37.3L20 29.3" stroke="black" stroke-width="2" stroke-miterlimit="10" stroke-linecap="round"/>
<path d="M37.3 20H29.3" stroke="black" stroke-width="2" stroke-miterlimit="10" stroke-linecap="round"/>
<path d="M23.165 5.34253L25.0317 9.49003C28.9492 11.3734 31.6667 15.37 31.6667 20C31.6667 26.4334 26.4333 31.6667 20 31.6667C13.5667 31.6667 8.33333 26.4334 8.33333 20C8.33333 15.37 11.0508 11.3734 14.9683 9.49003L16.835 5.34253C10.08 6.80086 5 12.815 5 20C5 28.2709 11.7292 35 20 35C28.2708 35 35 28.2709 35 20C35 12.815 29.92 6.80086 23.165 5.34253Z" fill="black"/>
</svg>
