<svg width="175" height="15" viewBox="0 0 175 15" fill="none" xmlns="http://www.w3.org/2000/svg">
<path d="M64.3417 7.28438V4.68359H98.4553V7.28438H64.3417Z" fill="#2DF9B0"/>
<path d="M5.75734 10.5087C6.24057 9.38758 6.69742 8.32759 7.15366 7.26761C7.4966 6.47203 7.84313 5.67764 8.17827 4.87906C8.24722 4.71479 8.34014 4.65963 8.51581 4.66383C8.98525 4.67582 9.45529 4.68001 9.92412 4.66383C10.134 4.65603 10.2131 4.73997 10.2898 4.92163C11.0393 6.69146 11.7953 8.45869 12.5579 10.2233C12.5873 10.2923 12.6232 10.3582 12.6856 10.4835C12.8966 9.98411 13.0861 9.53986 13.2731 9.095C13.8637 7.68969 14.4506 6.28377 15.0502 4.88266C15.0891 4.79093 15.2216 4.68002 15.3122 4.67822C16.1611 4.66323 17.01 4.66922 17.895 4.66922C17.5682 5.45162 17.2523 6.21183 16.9357 6.97024C15.8805 9.47631 14.8267 11.9826 13.7743 14.489C13.6814 14.7121 13.5693 14.7888 13.3337 14.7774C12.914 14.7576 12.4943 14.7564 12.0747 14.7774C11.8277 14.79 11.7083 14.7067 11.6106 14.4776C10.8516 12.6898 10.0776 10.9092 9.3072 9.12618C9.28801 9.08181 9.26163 9.04104 9.22086 8.9667C8.86114 9.79826 8.51761 10.6022 8.17048 11.4056C7.71183 12.4662 7.25618 13.5274 6.78495 14.5832C6.75472 14.6324 6.71371 14.6742 6.66501 14.7054C6.61631 14.7365 6.56118 14.7562 6.50377 14.763C6.00495 14.7814 5.50534 14.7814 5.00493 14.763C4.94751 14.7545 4.89281 14.7329 4.84501 14.6999C4.79721 14.667 4.75757 14.6236 4.72913 14.573C3.68594 12.1161 2.64934 9.65657 1.61934 7.19447C1.32197 6.48742 1.0244 5.78076 0.726633 5.07451C0.673873 4.94861 0.625307 4.82031 0.565353 4.66922C1.45447 4.66922 2.313 4.66383 3.17094 4.67881C3.25247 4.67881 3.36879 4.79513 3.40656 4.88386C4.06485 6.44265 4.71775 8.00504 5.36525 9.57103C5.48695 9.86301 5.60985 10.1568 5.75734 10.5087Z" fill="#2DF9B0"/>
<path d="M106.493 5.35864C107.297 4.76296 108.275 4.4471 109.276 4.45934C110.357 4.45244 111.411 4.80274 112.273 5.45587C113.136 6.109 113.758 7.02844 114.044 8.07155C114.572 9.99007 114.279 11.7743 112.958 13.3085C112.025 14.3925 110.793 14.9075 109.375 14.9794C108.28 15.0346 107.294 14.7186 106.394 14.0094V14.7462H103.765V0.00598145H106.493V5.35864ZM106.504 9.72027C106.504 10.1597 106.494 10.5986 106.51 11.0393C106.515 11.1664 106.561 11.3264 106.647 11.4098C106.896 11.6496 107.152 11.8996 107.447 12.0693C108.712 12.8043 110.29 12.4769 111.067 11.3432C111.887 10.1441 111.64 8.41508 110.52 7.50619C109.477 6.66024 107.664 6.88087 106.702 7.96363C106.633 8.0326 106.579 8.1154 106.544 8.20663C106.509 8.29786 106.493 8.39545 106.499 8.49302C106.518 8.90191 106.504 9.31139 106.504 9.72027Z" fill="#2DF9B0"/>
<path d="M49.3646 0H52.0889V7.8869C52.6285 7.38509 53.0973 6.94863 53.565 6.50797C54.1603 5.9474 54.7497 5.38084 55.3504 4.82627C55.4416 4.73931 55.5595 4.68566 55.6849 4.67399C56.8732 4.6638 58.0615 4.66859 59.2504 4.66979C59.2666 4.66979 59.2834 4.68358 59.3379 4.70816L54.4217 9.23286L59.959 14.7702H59.6203C58.6215 14.7702 57.6227 14.763 56.6226 14.7756C56.5198 14.78 56.4174 14.7614 56.3228 14.721C56.2281 14.6807 56.1438 14.6196 56.0758 14.5424C54.8532 13.2813 53.6265 12.0245 52.3959 10.7719C52.3203 10.6951 52.24 10.6238 52.1111 10.5009V14.7462H49.3634L49.3646 0Z" fill="#2DF9B0"/>
<path d="M167.148 14.7533H164.431V0.0101318H167.129V5.33102C167.485 5.14396 167.789 4.9617 168.106 4.82081C170.155 3.91731 172.662 4.72489 173.793 6.6512C174.255 7.43839 174.409 8.31491 174.422 9.20643C174.446 11.0146 174.429 12.8234 174.428 14.6316C174.425 14.6698 174.42 14.7079 174.413 14.7455H171.701V14.39C171.701 12.7317 171.705 11.0728 171.697 9.41386C171.694 9.1349 171.667 8.85671 171.617 8.58231C171.404 7.37364 170.368 6.912 169.398 6.98934C168.644 7.04929 168.006 7.38084 167.451 7.88385C167.348 7.96869 167.266 8.0761 167.211 8.19775C167.156 8.3194 167.13 8.45201 167.135 8.5853C167.15 10.5134 167.143 12.4421 167.143 14.3708L167.148 14.7533Z" fill="#2DF9B0"/>
<path d="M32.3414 9.74484C32.3618 12.6574 29.9924 15.0417 26.8496 14.9824C24.003 14.9284 21.6019 12.8109 21.5899 9.74604C21.5779 6.68121 24.0078 4.44254 27.0133 4.45513C30.0188 4.46772 32.3414 6.76634 32.3414 9.74484ZM24.3382 9.72865C24.3382 11.2928 25.4647 12.4643 26.966 12.4619C28.4672 12.4595 29.6135 11.2833 29.6129 9.73345C29.6129 8.17166 28.4546 6.96959 26.957 6.97558C25.4593 6.98158 24.3382 8.16266 24.3382 9.72865Z" fill="#2DF9B0"/>
<path d="M121.687 10.4236C121.83 11.4428 122.352 12.1568 123.266 12.5423C124.292 12.9758 125.555 12.8895 126.905 11.643L128.463 13.206C128.276 13.3829 128.068 13.6059 127.833 13.7954C125.95 15.3104 123.001 15.3919 121.047 13.9704C119.759 13.0334 119.144 11.7156 119.043 10.1592C118.945 8.64176 119.334 7.26103 120.326 6.06975C121.928 4.14584 125.117 3.89523 126.969 5.57334C128.323 6.80059 128.827 8.35638 128.697 10.1526C128.679 10.384 128.598 10.4284 128.388 10.4278C126.27 10.4212 124.151 10.4236 122.033 10.4236H121.687ZM125.909 8.39475C125.772 7.33777 124.854 6.59974 123.773 6.68008C122.693 6.76042 121.844 7.69929 121.855 8.39475H125.909Z" fill="#2DF9B0"/>
<path d="M134.094 4.68239H136.712V5.40183C137.045 5.21418 137.343 5.02472 137.658 4.87304C140.17 3.66917 143.729 5.09307 144.024 8.50923C144.115 9.57041 144.084 10.6424 144.093 11.7096C144.103 12.7174 144.093 13.7246 144.093 14.7504H141.364V14.4015C141.364 12.7036 141.37 11.0051 141.364 9.30541C141.364 8.73226 141.286 8.1663 140.906 7.69986C140.437 7.1273 139.801 6.93844 139.091 6.98521C138.324 7.03557 137.677 7.37011 137.116 7.88451C137.014 7.9701 136.933 8.07781 136.879 8.19946C136.825 8.32111 136.799 8.4535 136.804 8.58657C136.819 10.5141 136.812 12.4422 136.812 14.3703V14.745H134.094L134.094 4.68239Z" fill="#2DF9B0"/>
<path d="M157.187 11.1309L159.272 12.6939C158.574 13.649 157.71 14.3726 156.582 14.7036C154.903 15.1976 153.26 15.1071 151.737 14.1808C150.271 13.2887 149.435 11.9577 149.288 10.2478C149.026 7.19558 151.113 4.75666 154.197 4.48867C156.01 4.33099 157.549 4.92094 158.784 6.27109C158.844 6.33644 158.893 6.41139 158.959 6.49712L157.029 8.19321C156.389 7.41381 155.603 6.94917 154.593 6.98214C154.228 6.9902 153.868 7.07489 153.538 7.23074C153.207 7.38659 152.913 7.61012 152.674 7.88685C151.695 8.9852 151.789 10.8288 152.869 11.776C154.143 12.8966 155.823 12.6526 157.187 11.1309Z" fill="#2DF9B0"/>
<path d="M40.3428 5.61103C41.482 4.54506 42.756 4.31244 44.1889 4.54566C44.0827 5.40779 43.9808 6.23215 43.8891 6.98937C43.3189 7.01575 42.7871 6.98517 42.2781 7.0775C41.5767 7.2052 41.0251 7.63087 40.6078 8.20343C40.5033 8.35703 40.4464 8.53804 40.4442 8.72383C40.4328 10.622 40.437 12.5195 40.437 14.4194V14.7564H37.7307V4.68415H40.3446L40.3428 5.61103Z" fill="#2DF9B0"/>
</svg>
